<?xml version="1.0" standalone="no"?>
<!DOCTYPE svg PUBLIC "-//W3C//DTD SVG 20010904//EN"
 "http://www.w3.org/TR/2001/REC-SVG-20010904/DTD/svg10.dtd">
<svg version="1.0" xmlns="http://www.w3.org/2000/svg"
 width="260.000000pt" height="260.000000pt" viewBox="0 0 260.000000 260.000000"
 preserveAspectRatio="xMidYMid meet">
<metadata>
Created by potrace 1.11, written by Peter Selinger 2001-2013
</metadata>
<g transform="translate(0.000000,260.000000) scale(0.100000,-0.100000)"
fill="#000000" stroke="none">
<path d="M0 1300 l0 -1300 1300 0 1300 0 0 1300 0 1300 -1300 0 -1300 0 0
-1300z m1535 1231 c7 -12 -12 -24 -25 -16 -11 7 -4 25 10 25 5 0 11 -4 15 -9z
m0 -230 c7 -12 -12 -24 -25 -16 -11 7 -4 25 10 25 5 0 11 -4 15 -9z m0 -230
c7 -12 -12 -24 -25 -16 -11 7 -4 25 10 25 5 0 11 -4 15 -9z m0 -240 c7 -12
-12 -24 -25 -16 -11 7 -4 25 10 25 5 0 11 -4 15 -9z m0 -230 c7 -12 -12 -24
-25 -16 -11 7 -4 25 10 25 5 0 11 -4 15 -9z m0 -230 c7 -12 -12 -24 -25 -16
-11 7 -4 25 10 25 5 0 11 -4 15 -9z m-364 -401 c47 -134 70 -189 74 -175 4 11
35 99 69 195 58 165 63 175 89 178 18 2 27 -1 27 -11 0 -11 -117 -341 -155
-440 -6 -13 -16 -17 -38 -15 -29 3 -31 6 -113 233 -46 126 -84 231 -84 233 0
2 14 2 32 0 l31 -3 68 -195z m676 188 c13 -17 163 -426 163 -444 0 -8 -10 -14
-24 -14 -20 0 -28 11 -52 73 l-29 72 -91 3 -91 3 -28 -76 c-25 -70 -29 -75
-56 -75 -16 0 -29 2 -29 4 0 7 170 447 176 457 8 13 50 11 61 -3z m-312 -17
c7 -12 -12 -24 -25 -16 -11 7 -4 25 10 25 5 0 11 -4 15 -9z m-4 -244 c-1 -12
-15 -9 -19 4 -3 6 1 10 8 8 6 -3 11 -8 11 -12z m4 -226 c7 -12 -12 -24 -25
-16 -11 7 -4 25 10 25 5 0 11 -4 15 -9z m-1090 -45 c23 -10 35 -22 35 -35 0
-29 -13 -33 -56 -15 -78 33 -173 1 -211 -69 -26 -48 -24 -171 3 -217 42 -72
126 -99 214 -69 25 9 34 9 40 -2 23 -36 -29 -62 -126 -61 -128 1 -202 75 -212
214 -12 163 74 267 221 268 32 0 73 -7 92 -14z m413 -1 c88 -37 126 -105 126
-225 1 -69 -3 -93 -21 -125 -45 -84 -101 -117 -198 -117 -73 0 -110 13 -153
55 -41 40 -61 85 -69 157 -11 110 39 214 122 251 50 23 142 25 193 4z m1073 4
c40 -12 52 -28 43 -54 -8 -19 -13 -19 -57 0 -86 36 -185 2 -225 -75 -20 -38
-23 -56 -19 -118 5 -81 20 -111 77 -149 25 -17 47 -23 89 -23 99 0 101 2 101
81 l0 69 -55 0 c-52 0 -55 1 -55 25 0 24 2 25 73 25 43 0 78 -5 85 -12 8 -8
12 -47 12 -109 0 -96 0 -97 -27 -108 -16 -6 -53 -15 -83 -20 -165 -27 -280 67
-280 227 0 36 6 83 12 106 15 50 80 118 128 133 47 15 134 16 181 2z m445 -8
c168 -77 165 -377 -6 -449 -52 -22 -148 -19 -197 6 -80 41 -117 111 -117 222
0 111 39 185 119 221 53 24 147 24 201 0z m-1041 -26 c68 -42 97 -100 97 -192
0 -169 -90 -243 -294 -243 l-88 0 0 236 0 236 118 -3 c111 -4 122 -6 167 -34z
m200 -154 c7 -12 -12 -24 -25 -16 -11 7 -4 25 10 25 5 0 11 -4 15 -9z m0 -230
c7 -12 -12 -24 -25 -16 -11 7 -4 25 10 25 5 0 11 -4 15 -9z"/>
<path d="M1781 1008 c-17 -51 -31 -96 -31 -101 0 -4 29 -7 65 -7 36 0 65 4 65
8 0 11 -58 184 -64 189 -2 2 -18 -38 -35 -89z"/>
<path d="M691 573 c-47 -24 -69 -58 -81 -122 -17 -89 2 -162 54 -210 20 -19
40 -26 85 -29 118 -9 175 52 175 189 0 84 -17 126 -66 162 -38 29 -123 34
-167 10z"/>
<path d="M2200 573 c-54 -28 -80 -83 -80 -173 0 -128 51 -190 158 -190 106 0
157 64 156 196 0 78 -19 122 -66 157 -38 29 -123 34 -168 10z"/>
<path d="M1110 394 l0 -187 75 6 c130 11 177 54 183 168 8 136 -53 199 -191
199 l-67 0 0 -186z"/>
</g>
</svg>
