<svg width="40" height="39" viewBox="0 0 40 39" xmlns="http://www.w3.org/2000/svg"><title>ico_phone</title><g fill="none" fill-rule="evenodd"><g stroke="#1B1B1B" stroke-width="2"><path d="M25.867 24.042a.806.806 0 0 0-1.113-.02s-2.28 2.202-2.43 2.34a.487.487 0 0 1-.125.088c-2.37 1.185-10.922-7.856-9.29-9.556l2.437-2.36a.782.782 0 0 0 .01-1.113L7.38 5.39a.8.8 0 0 0-.562-.236.81.81 0 0 0-.567.226c-3.994 3.873-10.4 7.768 4.564 22.837 14.767 14.87 19 9.235 23.076 4.907a.783.783 0 0 0-.014-1.092l-8.01-7.988zM32.798 18.168c.215-6.47-5.112-11.72-11.654-11.507M38.447 18.168C38.66 8.624 30.82.874 21.144 1.083M21.144 12.24c3.418-.222 6.23 2.556 6.004 5.928"/></g><path d="M0-.5h40v39.497H0z"/></g></svg>