<svg width="15" height="24" viewBox="0 0 15 24" xmlns="http://www.w3.org/2000/svg"><title>ico_transacciones</title><g fill="none" fill-rule="evenodd"><g stroke="#00E676" stroke-width=".96"><path d="M1.144 3.196V22.72h12.8V3.197h-.024l-2.126-1.78-2.125 1.78-2.127-1.78-2.125 1.78-2.126-1.78-2.125 1.78h-.023zM5.27 19.032h4.976M5.27 16.25h4.976"/><path d="M5.268 11.865c.546.445 1.39.78 1.998.78.974 0 1.764-.646 1.764-1.442 0-.795-.843-1.19-1.764-1.44-.954-.28-1.763-.645-1.763-1.44 0-.796.79-1.44 1.763-1.44.656 0 1.228.292 1.532.725M7.266 6.095v.787M7.266 12.644v.787"/></g><path d="M-4.348-.997h23.834V21.27H-4.348z"/><path d="M-4.348-1h23.834v22.268H-4.348z"/></g></svg>