<svg width="32" height="32" viewBox="0 0 32 32" xmlns="http://www.w3.org/2000/svg"><title>thin-0353_wi-fi_wlan_connect_internet</title><g fill="none" fill-rule="evenodd"><g transform="translate(1 1)" stroke="#00BDE9" stroke-width="1.333"><path d="M15 .2C6.833.2.192 6.84.192 15.004c0 8.164 6.64 14.807 14.806 14.807 8.163 0 14.805-6.643 14.805-14.807C29.805 6.84 23.163.2 15 .2z"/><circle cx="14.999" cy="22.867" r="1.084"/><path d="M21.796 15.327c-3.696-3.91-9.905-3.903-13.595 0M25.67 25.678L4.327 4.333M25.09 12.064c-5.513-5.706-14.664-5.712-20.184 0M11.496 18.59a4.676 4.676 0 0 1 7.005 0"/></g><path d="M0 0h32v32H0z"/></g></svg>