<svg width="39" height="40" viewBox="0 0 39 40" xmlns="http://www.w3.org/2000/svg"><title>ico_etiquetas</title><g fill="none" fill-rule="evenodd"><g transform="translate(.6 1)" stroke="#FFAE36" stroke-width="1.6"><path d="M37.107 19.766L18.322 1.16c-.52-.515-1.19-.395-1.968-.392L2.14.836c-.738.01-1.37.6-1.366 1.38l.073 15.212c.002.362.15.71.406.968.3.298 18.805 18.7 19.192 18.87a1.358 1.358 0 0 0 1.533-.276l15.137-15.282a1.37 1.37 0 0 0-.008-1.942z"/><ellipse cx="8.86" cy="8.824" rx="3.113" ry="3.113"/></g><path d="M.578 1h38.4v38.4H.578z"/></g></svg>