<svg xmlns="http://www.w3.org/2000/svg" width="30.061" height="29.601" viewBox="0 0 30.061 29.601"><path fill="none" stroke="#AA7FB8" stroke-width=".992" stroke-miterlimit="10" d="M13.362 4.825L11.55 6.692l-2.9-2.986"/><ellipse fill="none" stroke="#AA7FB8" stroke-width=".992" stroke-miterlimit="10" cx="11.549" cy="6.692" rx="6.018" ry="6.196"/><path fill="none" stroke="#AA7FB8" stroke-width=".992" stroke-miterlimit="10" d="M2.5 21.342v2.585h.782v2.586H5.15M19.222 10.675h5.27l2.19 5.15 2.32 1.624c.352.246.563.656.563 1.095v8.034h-2.557M2.532 13.362v-2.687h1.28M10.182 26.597h11.793"/><ellipse fill="none" stroke="#AA7FB8" stroke-width=".992" stroke-miterlimit="10" cx="24.491" cy="26.514" rx="2.516" ry="2.591"/><ellipse fill="none" stroke="#AA7FB8" stroke-width=".992" stroke-miterlimit="10" cx="7.666" cy="26.514" rx="2.516" ry="2.591"/><path fill="none" stroke="#AA7FB8" stroke-width=".992" stroke-miterlimit="10" d="M3.282 23.923H29.55M20.554 10.675v13.19M3.862 18.644H1.287M0 15.993h5.15"/></svg>