<svg width="49" height="34" viewBox="0 0 49 34" xmlns="http://www.w3.org/2000/svg"><title>ico_cloud</title><g fill="none" fill-rule="evenodd"><g stroke="#00BDE9" stroke-width="2"><path d="M37.932 32.357c5.083 0 9.377-4.604 9.377-10.05 0-5.636-4.658-10.644-10.448-9.994-1.235-4.642-5.124-8.27-10.713-7.47-7.448-7.248-18.565-2.32-20.18 9.02-8.386 5.977-3.998 18.494 4.417 18.494h27.545z"/><path d="M30.175 17.022a7.09 7.09 0 0 0-6.803-5.104 7.09 7.09 0 0 0-6.803 5.104"/><path d="M31.56 13.545l-1.35 3.477-3.478-1.35M16.624 20.995a7.09 7.09 0 0 0 6.803 5.104 7.09 7.09 0 0 0 6.803-5.105"/><path d="M15.24 24.472l1.35-3.477 3.477 1.35"/></g><path d="M-.25-9.75h49.3v49.3H-.25z"/></g></svg>