<svg width="31" height="31" viewBox="0 0 31 31" xmlns="http://www.w3.org/2000/svg"><title>thin-0421_money_credit_card_coins_payment</title><g fill="none" fill-rule="evenodd"><g transform="translate(1.28 .28)" stroke="#0C3" stroke-width="1.28"><path d="M21.805 22.788l.61 2.44A1.52 1.52 0 0 1 21.2 27L6.283 29.78a1.52 1.52 0 0 1-1.774-1.214L.192 5.406a1.52 1.52 0 0 1 1.216-1.773L16.324.853a1.52 1.52 0 0 1 1.773 1.215l.32 1.59"/><path d="M8.033 29.456L3.157 3.306l4.276-.797 4.875 26.15zM18.833 14.28c-2.777-.175-5.035-2.484-5.035-5.306a5.317 5.317 0 0 1 10.634 0c0 1.23-.417 2.432-1.118 3.332"/><circle cx="22.983" cy="17.604" r="5.317"/><path d="M21.417 19.515c.456.396 1.158.694 1.664.694.812 0 1.47-.576 1.47-1.285 0-.71-.702-1.06-1.47-1.284-.793-.247-1.467-.573-1.467-1.282 0-.71.658-1.284 1.468-1.284.548 0 1.024.26 1.277.647M23.08 14.372v.702M23.08 20.265v.7M17.682 10.565c.417.363 1.06.635 1.522.635.742 0 1.343-.526 1.343-1.174 0-.648-.642-.97-1.343-1.174-.726-.228-1.342-.526-1.342-1.174 0-.648.6-1.174 1.342-1.174.5 0 .936.238 1.167.592M19.204 5.862v.642M19.204 11.2v.642"/></g><path d="M.01.272h30.72v30.72H.01z"/></g></svg>