<svg width="25" height="24" viewBox="0 0 25 24" xmlns="http://www.w3.org/2000/svg"><title>ico_admin</title><g fill="none" fill-rule="evenodd"><g transform="translate(.907 .41)" stroke="#70A0F7" stroke-width=".814"><path d="M7.848 19.762l-.477 2.964c0 .217.215.392.478.392h7.314c.263 0 .476-.175.476-.392l-.477-2.964M21.296.09H1.713c-.9 0-1.61.723-1.61 1.63v13.732c0 .91.71 1.638 1.61 1.638h19.583c.902 0 1.612-.73 1.612-1.638V1.722c0-.91-.71-1.632-1.612-1.632zM.104 14.09h22.804"/><ellipse cx="11.49" cy="7.135" rx=".816" ry=".823"/><ellipse cx="11.49" cy="7.139" rx="3.485" ry="3.515"/><path d="M11.49 3.624v-1.01M11.49 11.69v-1.01M14.99 7.152h1M6.99 7.152h1.002M13.24 4.097l.5-.875M9.24 11.083l.5-.875M9.74 4.097l-.5-.875M13.74 11.083l-.5-.875M14.52 8.916l.868.506M7.593 4.883l.868.505M14.52 5.388l.868-.505M7.593 9.422l.868-.506"/></g><path d="M.5 0h23.797v24H.5z"/></g></svg>