<svg width="24" height="23" viewBox="0 0 24 23" xmlns="http://www.w3.org/2000/svg"><title>ico_reportes</title><g fill="none" fill-rule="evenodd"><g stroke="#00E676" stroke-width=".733"><path d="M20.443 6.606l3.002.004-.06 14.82h-7.417M3.376 3.58L3.53.89l14.124 1.132-.204 1.557M16.21 18.46l-.3 3.674-14.123-1.142.316-2.53"/><path d="M.59 3.57h19.853v14.89H.59z"/><path d="M10.024 9.512c-.068 0-.107 0-2.614 1.106l.336-2.765c.04-.315-.325-.318-.644-.318a3.407 3.407 0 1 0 .008 6.813 3.407 3.407 0 0 0 3.376-2.994c.057-.46-.004-1.842-.462-1.842zM13.51 13.498h3.94M13.51 10.52h3.94M13.51 7.54h3.94"/></g><path d="M.094.097h23.824V23.92H.094z"/></g></svg>