<svg width="52" height="43" viewBox="0 0 52 43" xmlns="http://www.w3.org/2000/svg"><title>ico_interfaz</title><g fill="none" fill-rule="evenodd"><g stroke="#FFAE36" stroke-width="2"><path d="M1.99 3.455V38.91c0 1.225.89 2.217 1.99 2.217h44.312c1.1 0 1.992-.992 1.992-2.217V3.455c0-1.224-.89-2.216-1.992-2.216H3.982c-1.102 0-1.993.99-1.993 2.215z"/><path d="M6.246 36.88V5.434H44.03V36.88z"/></g><path d="M.923 46.396V-4.068h50.464v50.464z"/><g><g transform="translate(16.986 12.153)" stroke="#FFAE36" stroke-width="2"><path d="M9.01 14.246c1.797 0 3.343-1.015 4.055-2.476h-8.11c.713 1.46 2.26 2.476 4.056 2.476z"/><path d="M9.007.168C4.12.168.145 4.143.145 9.03c0 4.887 3.975 8.863 8.862 8.863 4.887 0 8.862-3.976 8.862-8.863S13.893.168 9.006.168z"/><circle cx="6.309" cy="7.089" r="1.525"/><circle cx="11.722" cy="7.089" r="1.525"/></g><path d="M16.595 11.76h18.807V30.57H16.595z"/></g></g></svg>