<svg width="32" height="32" viewBox="0 0 32 32" xmlns="http://www.w3.org/2000/svg"><title>ico_google_footer</title><g fill="none" fill-rule="evenodd"><rect fill="#FFF" width="32" height="32" rx="4"/><path d="M13.548 22.144c-1.55 0-2.668-1.072-2.668-2.36 0-1.26 1.373-2.266 2.922-2.248.36.005.713.024 1.02.132.84.64 1.443 1 1.614 1.728.032.148.076.358.076.514 0 1.287-.786 2.234-2.964 2.234zm.248-7.17c-1.11-.03-2.3-1.067-2.398-2.48-.08-1.2.632-2.67 1.74-2.637 1.11.032 2.128 1.228 2.32 2.633.19 1.405-.553 2.517-1.662 2.485zm2.476 2.048c-.378-.263-1.1-.903-1.1-1.28 0-.44.127-.656.802-1.175.69-.53 1.088-1.33 1.088-2.2 0-1.034-.388-2.003-1.267-2.336h1.267l.986-.686h-4.225c-1.875 0-3.575 1.433-3.575 3.05 0 1.654 1.278 2.988 3.185 2.988.133 0 .26-.003.388-.012-.123.233-.265.48-.265.754 0 .46.305.846.623 1.15-.24 0-.472.006-.725.006-2.322 0-4.11 1.454-4.11 2.962 0 1.485 1.96 2.414 4.282 2.414 2.647 0 4.14-1.465 4.14-2.95 0-1.19-.39-1.916-1.493-2.684zm4.87-6.138v-1.54h-1.045v1.54h-1.533v1.04h1.533v1.516h1.046v-1.516l1.513-.033v-1.006h-1.513z" fill="#333"/></g></svg>