<svg xmlns="http://www.w3.org/2000/svg" width="32" height="29.332" viewBox="0 0 32 29.332"><path fill="none" stroke="#00D081" stroke-width="1.333" stroke-miterlimit="10" d="M.667.666h30.667v28H.667zM31.297 8.667H.73M25.93 3.25L28.623 6M25.93 6l2.693-2.75"/><path fill="none" stroke="#00D081" stroke-width="1.333" stroke-miterlimit="10" d="M20.647 3.333h2.668V6h-2.668zM15.313 6h2.667"/><circle fill="none" stroke="#00D081" stroke-width="1.333" stroke-miterlimit="10" cx="16.002" cy="18.622" r="2.027"/><path fill="none" stroke="#00D081" stroke-width="1.333" stroke-miterlimit="10" d="M20.872 19.766l1.828-.25a6.647 6.647 0 0 0-.012-1.868l-1.83-.23a4.962 4.962 0 0 0-.604-1.428l1.117-1.472a6.882 6.882 0 0 0-1.327-1.313l-1.457 1.134a4.988 4.988 0 0 0-1.438-.588l-.25-1.83a6.633 6.633 0 0 0-1.867.013l-.227 1.83c-.514.128-.996.332-1.433.605l-1.47-1.117a6.88 6.88 0 0 0-1.313 1.327l1.134 1.458c-.265.44-.466.925-.586 1.44l-1.83.25a6.868 6.868 0 0 0 .012 1.867l1.832.23c.127.513.333.994.605 1.433l-1.117 1.47c.365.477.817.93 1.328 1.312l1.458-1.134c.44.266.924.466 1.44.586l.25 1.828c.632.083 1.232.08 1.867-.012l.228-1.832a4.988 4.988 0 0 0 1.43-.604l1.472 1.117c.496-.38.937-.828 1.312-1.33l-1.135-1.457c.264-.44.463-.924.585-1.437z"/></svg>