<svg width="82" height="86" viewBox="0 0 82 86" xmlns="http://www.w3.org/2000/svg"><title>ico_restaurant</title><g fill="none" fill-rule="evenodd"><g stroke="#9B9B9B" stroke-width="3"><path d="M.667 76.1h80.666M77.274 69.286c0-21.912-16.336-36.36-36.487-36.36-20.15 0-36.486 14.448-36.486 36.36h72.974zM45.1 27.9c0-6.81-8.624-6.82-8.624 0M31.166 42.478c-7.335 3.144-12.09 9.216-14.67 18.053M40.267 14.246V.274M61.75 22.938l10.883-11.29M8.942 11.65l10.883 11.288M72.594 83.894H8.98L4.377 76.59h72.822l-4.604 7.304z"/></g><path d="M-3-1.928h88V85.72H-3z"/></g></svg>