<svg width="88" height="80" viewBox="0 0 88 80" xmlns="http://www.w3.org/2000/svg"><title>ico_shirt</title><g fill="none" fill-rule="evenodd"><g stroke="#9B9B9B" stroke-width="3"><path d="M31.87 2.415c2.333 16.09 21.317 15.7 24.126.163M71.183 78.368c-.004-14.036-.01-30.585-.016-44.622 4.273 1.07 4.41 1.833 7.195-1.683.65-.82 7.76-8.694 7.252-9.267-4.163-4.698-8.325-9.402-12.49-14.102-3.3-3.73-8.083-4.003-12.847-5.33-6.442-1.796-9.623.13-16.54.13-6.108 0-9.247-1.99-14.788-.476-4.142 1.133-10.645 1.436-13.58 4.747-4.305 4.864-8.613 9.727-12.92 14.59-1.34 1.518 3.73 5.937 4.764 7.178 4.03 4.837 3.38 5.715 9.27 4.242v44.593h54.7M71.167 33.746s-6.875-11.12-1.444-27.592M16.484 33.775S23.357 22.52 17.927 6.05"/></g><path d="M.052-3.87h87.77V83.9H.053z"/></g></svg>