<svg xmlns="http://www.w3.org/2000/svg" xmlns:xlink="http://www.w3.org/1999/xlink" width="15.507" height="31.715" viewBox="0 0 15.507 31.715"><defs><path id="a" d="M0 20.692h15.095v11.022H0z"/></defs><clipPath id="b"><use xlink:href="#a" overflow="visible"/></clipPath><path clip-path="url(#b)" fill="none" stroke="#FFAE36" stroke-width="1.194" stroke-miterlimit="10" d="M10.362 19.763V15.9M12.468 13.334c.46 0 .83.377.83.842v13.052c0 .466-.37.843-.83.843H4.082a.836.836 0 0 1-.83-.842V14.176c0-.465.372-.842.83-.842h8.386z"/><path clip-path="url(#b)" fill="none" stroke="#FFAE36" stroke-width="1.194" stroke-miterlimit="10" d="M5.152 13.334h2.492V28.07H5.152z"/><defs><path id="c" d="M0 20.692h15.095v11.022H0z"/></defs><clipPath id="d"><use xlink:href="#c" overflow="visible"/></clipPath><path clip-path="url(#d)" fill="none" stroke="#FFAE36" stroke-width="1.194" stroke-miterlimit="10" d="M10.362 19.763V15.9M12.468 13.334c.46 0 .83.377.83.842v13.052c0 .466-.37.843-.83.843H4.082a.836.836 0 0 1-.83-.842V14.176c0-.465.372-.842.83-.842h8.386z"/><path clip-path="url(#d)" fill="none" stroke="#FFAE36" stroke-width="1.194" stroke-miterlimit="10" d="M5.152 13.334h2.492V28.07H5.152z"/><defs><path id="e" d="M0 20.692h15.095v11.022H0z"/></defs><clipPath id="f"><use xlink:href="#e" overflow="visible"/></clipPath><path clip-path="url(#f)" fill="none" stroke="#FFAE36" stroke-width="1.194" stroke-miterlimit="10" d="M10.362 19.763V15.9M12.468 13.334c.46 0 .83.377.83.842v13.052c0 .466-.37.843-.83.843H4.082a.836.836 0 0 1-.83-.842V14.176c0-.465.372-.842.83-.842h8.386z"/><path clip-path="url(#f)" fill="none" stroke="#FFAE36" stroke-width="1.194" stroke-miterlimit="10" d="M5.152 13.334h2.492V28.07H5.152z"/><path fill="none" stroke="#FFAE36" stroke-width="1.194" stroke-miterlimit="10" d="M13.684 20.112H2.437a1.225 1.225 0 0 1-1.225-1.223V1.82c0-.674.55-1.224 1.225-1.224h11.247c.677 0 1.227.55 1.227 1.224v17.07c0 .674-.55 1.222-1.226 1.222z"/><ellipse fill="none" stroke="#FFAE36" stroke-width="1.194" stroke-miterlimit="10" cx="4.611" cy="9.927" rx=".842" ry=".831"/><ellipse fill="none" stroke="#FFAE36" stroke-width="1.194" stroke-miterlimit="10" cx="8.05" cy="9.927" rx=".842" ry=".831"/><ellipse fill="none" stroke="#FFAE36" stroke-width="1.194" stroke-miterlimit="10" cx="11.488" cy="9.927" rx=".842" ry=".831"/><ellipse fill="none" stroke="#FFAE36" stroke-width="1.194" stroke-miterlimit="10" cx="4.611" cy="13.317" rx=".842" ry=".831"/><ellipse fill="none" stroke="#FFAE36" stroke-width="1.194" stroke-miterlimit="10" cx="8.05" cy="13.317" rx=".842" ry=".831"/><ellipse fill="none" stroke="#FFAE36" stroke-width="1.194" stroke-miterlimit="10" cx="11.488" cy="13.317" rx=".842" ry=".831"/><ellipse fill="none" stroke="#FFAE36" stroke-width="1.194" stroke-miterlimit="10" cx="4.611" cy="16.707" rx=".842" ry=".831"/><ellipse fill="none" stroke="#FFAE36" stroke-width="1.194" stroke-miterlimit="10" cx="8.05" cy="16.707" rx=".842" ry=".831"/><ellipse fill="none" stroke="#FFAE36" stroke-width="1.194" stroke-miterlimit="10" cx="11.488" cy="16.707" rx=".842" ry=".831"/><path fill="none" stroke="#FFAE36" stroke-width="1.194" stroke-miterlimit="10" d="M3.742 3.157h8.595v3.39H3.742z"/></svg>