<svg xmlns="http://www.w3.org/2000/svg" width="25.912" height="32.224" viewBox="0 0 25.912 32.224"><path fill="#FFAE36" d="M7.874 29.845c-.918 0-1.665-.734-1.665-1.64 0-.905.745-1.642 1.662-1.642s1.663.735 1.663 1.64c0 .442-.174.855-.49 1.166-.315.306-.73.475-1.17.475zm-.002-1.95c-.182 0-.33.14-.33.31 0 .17.148.31.33.31h.002a.33.33 0 0 0 .236-.097.294.294 0 0 0 .09-.212c.002-.172-.146-.31-.328-.31z"/><path fill="#FFAE36" d="M7.82 32.177c-2.478 0-4.496-1.98-4.496-4.413L4.34 13.312C2.986 12.408 0 10.076 0 7.055 0 4.49 1.3 2.105 3.48.678L4.512.002v5.593l1.605 2.392 3.406-.002 1.605-2.39L11.13 0l1.03.677c2.18 1.43 3.48 3.815 3.48 6.378 0 3.02-2.984 5.354-4.34 6.257l1.014 14.405c.002 2.48-2.015 4.46-4.493 4.46zM3.18 2.63a6.247 6.247 0 0 0-1.847 4.425c0 2.623 3.102 4.753 4.052 5.344l.34.21-1.07 15.2c0 1.652 1.42 3.034 3.165 3.035 1.744 0 3.163-1.383 3.163-3.08L9.915 12.61l.34-.21c.952-.592 4.053-2.723 4.054-5.346A6.25 6.25 0 0 0 12.46 2.63V6L10.235 9.32l-4.83.002L3.18 6V2.63zM21.196 32.224c-2.6 0-4.715-1.748-4.715-3.897v-7.975l.388-.18c.5-.23.8-.61.8-1.017s-.3-.787-.8-1.018l-.387-.18v-3.855h9.43v3.856l-.386.18c-.5.23-.8.61-.8 1.017s.3.787.8 1.018l.387.18v7.974c0 2.15-2.114 3.897-4.714 3.897zM17.813 21.17v7.156c0 1.414 1.518 2.565 3.383 2.565s3.383-1.15 3.383-2.564V21.17c-.742-.476-1.187-1.218-1.187-2.015s.444-1.54 1.186-2.016v-1.704h-6.767v1.703c.74.476 1.186 1.218 1.186 2.015s-.445 1.54-1.187 2.016z"/><path fill="#FFAE36" d="M20.53 4.477h1.332V14.77H20.53z"/><path fill="#FFAE36" d="M22.49 5.144H19.9l-.84-2.668.887-2.105h2.498l.888 2.106-.842 2.668zM20.88 3.81h.635l.4-1.268-.354-.838h-.728l-.354.838.4 1.27zM20.53 21.955h1.332v6.25H20.53z"/></svg>