<svg width="44" height="52" viewBox="0 0 44 52" xmlns="http://www.w3.org/2000/svg"><title>ico_Android</title><path d="M4.962 17.46c-1.635 0-2.96 1.157-2.96 2.585V31.11c0 1.43 1.325 2.59 2.96 2.59 1.634 0 2.962-1.16 2.962-2.59V20.046c0-1.428-1.328-2.585-2.962-2.585zM29.95 4.06a.816.816 0 1 0-1.156-1.15L25.61 6.082a15.12 15.12 0 0 0-7.144-.01L15.287 2.91a.818.818 0 0 0-1.158 0 .812.812 0 0 0 0 1.15l2.574 2.565c-4.296 1.644-7.28 5.21-7.28 9.354 0 .005 0 0 .975.012.975.013 22.053-.006 23.06-.01 1.15-.003 1.15 0 1.15-.003 0-4.135-2.968-7.692-7.248-9.343L29.95 4.06zm-11.637 8.968c-.82 0-1.48-.66-1.48-1.476 0-.815.66-1.474 1.48-1.474s1.482.66 1.482 1.474c0 .815-.663 1.476-1.482 1.476zm7.41 0a1.48 1.48 0 0 1-1.484-1.476c0-.815.663-1.474 1.482-1.474.818 0 1.482.66 1.482 1.474a1.48 1.48 0 0 1-1.482 1.476zm13.316 4.432c-1.636 0-2.96 1.157-2.96 2.585V31.11c0 1.43 1.324 2.59 2.96 2.59 1.633 0 2.96-1.16 2.96-2.59V20.046c0-1.428-1.327-2.585-2.96-2.585zM9.422 35.162c0 2.44 1.982 4.417 4.43 4.426v7.755c0 1.427 1.327 2.588 2.962 2.588 1.634 0 2.962-1.16 2.962-2.587V39.59h4.45v7.753c0 1.427 1.323 2.588 2.96 2.588 1.634 0 2.96-1.16 2.96-2.587V39.59h.02a4.435 4.435 0 0 0 4.444-4.428V17.455H9.424v17.707z" stroke="#00D081" stroke-width="2" fill="none" fill-rule="evenodd"/></svg>