<svg width="36" height="29" viewBox="0 0 36 29" xmlns="http://www.w3.org/2000/svg"><title>ico_impresora</title><g fill="none" fill-rule="evenodd"><g stroke="#0C3" stroke-width="1.667"><path d="M8.227 7.597H4.294c-1.58 0-2.863 1.666-2.863 3.713v12.684c0 2.05 1.285 3.713 2.864 3.713h27.323c1.58 0 2.862-1.664 2.862-3.713V11.31c0-2.047-1.284-3.713-2.863-3.713H27.96M11.627 9.42h12.655M11.627 5.748h12.655M28.067 12.7H7.895"/><path d="M7.895 13.562V1.838c0-.52.396-.94.885-.94h18.4c.49 0 .887.42.887.94v11.724"/></g><path d="M-2-6h40v40H-2z"/></g></svg>