<svg width="32" height="32" viewBox="0 0 32 32" xmlns="http://www.w3.org/2000/svg"><title>ico_twitter_footer</title><g fill="none" fill-rule="evenodd"><rect fill="#FFF" width="32" height="32" rx="4"/><path d="M13.53 21.632a7.51 7.51 0 0 1-4.186-1.278 5.34 5.34 0 0 0 4.043-1.177c-1.195-.023-2.203-.845-2.55-1.975a2.623 2.623 0 0 0 1.233-.05c-1.25-.26-2.19-1.41-2.19-2.787v-.036c.367.212.788.34 1.236.355A2.875 2.875 0 0 1 9.9 12.318c0-.52.136-1.01.37-1.43 1.348 1.72 3.36 2.853 5.63 2.972a2.967 2.967 0 0 1-.07-.648c0-1.57 1.222-2.844 2.73-2.844a2.68 2.68 0 0 1 1.994.898 5.34 5.34 0 0 0 1.734-.69 2.835 2.835 0 0 1-1.2 1.573 5.293 5.293 0 0 0 1.568-.45c-.366.572-.83 1.073-1.363 1.473.005.122.008.245.008.368 0 3.76-2.746 8.092-7.77 8.092" fill="#333"/></g></svg>