<svg width="51" height="31" viewBox="0 0 51 31" xmlns="http://www.w3.org/2000/svg"><title>ico_cliente</title><g fill="none" fill-rule="evenodd"><g stroke="#BF7BE6" stroke-width="2"><path d="M35.213 22.27l-4.945-4.154M30.67 24.788l-4.033-3.3M8.656 16.07c1.434 4.123 12.99 13.05 12.99 13.05 2.785 2.36 5.304-1.24 3.013-3.178L22.9 24.237M22.902 24.237l4.778 4.15c2.75 2.325 5.43-1.47 3.16-3.392l1.204 1.02c2.403 2.033 5.566-1.717 3.17-3.745l.186.158c2.403 2.033 5.565-1.717 3.168-3.745L26.74 9.04s-2.28.874-3.163.62c0 0-3.406 5.225-5.896 3.41-2.49-1.816 0-9.545 7-10.65 0 0 3.15-.898 10.864 3.078l2.86-.866M6.72 19.946l-5.492-2.17 3.22-15.873 5.493 2.17-3.22 15.873zM40.664 4.538l5.492-2.17 3.22 15.87-5.492 2.17-3.22-15.87zM11.903 4.602s.406-.738 9.298-.93M39.33 19.915s2.205.57 3.362-.75"/></g><path d="M-2.426-12.43h55.423v55.423H-2.426z"/></g></svg>