<svg width="27" height="32" viewBox="0 0 27 32" xmlns="http://www.w3.org/2000/svg"><title>thin-0454_shopping_bag_sale_store</title><g fill="none" fill-rule="evenodd"><g transform="translate(.43 .5)" stroke="#00BDE9" stroke-width="1.313"><path d="M25.495 19.782l-6.206-6.047a.455.455 0 0 0-.32-.13l-.33.002-4.697.022a.45.45 0 0 0-.45.447c0 .304-.06 5.044.157 5.26.1.096 6.213 6.077 6.34 6.132a.458.458 0 0 0 .308.026.544.544 0 0 0 .2-.116l5-4.967a.44.44 0 0 0-.003-.63z"/><ellipse cx="16.215" cy="16.375" rx="1.029" ry="1.012"/><path d="M20.366 27.865v2.543H.69V7.174h19.676V10.8"/><path d="M15.08 9.717V5.41c0-2.5-1.936-4.764-4.478-4.764h-.08C7.978.646 5.89 2.91 5.89 5.41v4.307"/></g><path d="M-3.526.5h31.508v31H-3.526z"/></g></svg>