<svg xmlns="http://www.w3.org/2000/svg" width="29.65" height="30.344" viewBox="0 0 29.65 30.344"><path fill="none" stroke="#AA7FB8" stroke-width="1.28" stroke-miterlimit="10" d="M28.952 16.903H.698c.445 5.12 4.44 9.436 9.606 11.446v1.353h9.042V28.35c5.167-2.01 9.16-6.327 9.606-11.447zM2.527 14.707s-.68-.288.194-1.564c0 0-2.535-2.884.625-3.626 0 0-.374-6.756 4.323-3.954 0 0 3.658-1.69 3.7 2.47 0 0 3.575.413 1.58 2.844-1.39 1.692-.26 2.347.555 2.588.806.238 1.29.438 1.51 1.243M8.173 14.626c-1.363-1.392-2.467-3.35-2.126-5.933M8.173 14.626s1.125-2.556 1.495-4.574M6.662 12.528l-2.818-.745"/><path fill="none" stroke="#AA7FB8" stroke-width="1.28" stroke-miterlimit="10" d="M14.357 13.798s-.287-5.518 5.16-.8c0 0 2.244-6.942 6.192-1.42 0 0 1.62-1.233 1.704.577.082 1.81-.998 2.47-.998 2.47M22.448 14.707c.736-.51 1.922-1.364 2.182-1.71M22.448 14.708s-.77-2.39.477-2.926"/><path fill="none" stroke="#AA7FB8" stroke-width="1.28" stroke-miterlimit="10" d="M23.4 9.55s2.685-.94 1.062-1.93c-1.62-.987-3.185-1.316-3.524-.864 0 0 3.608-4.82 1.32-5.932-2.285-1.112-7.606 3.172-7.606 3.172S12.365.248 11.41 1.4c0 0-1.375.664-1.124 4.08"/><path fill="none" stroke="#AA7FB8" stroke-width="1.28" stroke-miterlimit="10" d="M17.07 11.355s-2.584-3.815-.59-5.217c1.997-1.4 3.005-1.4 2.75-2.307M12.99 5.892l2.736 1.483M16.132 9.55s1.192-1.64 3.1-1.27"/></svg>