<svg width="24" height="24" viewBox="0 0 24 24" xmlns="http://www.w3.org/2000/svg"><title>ico_pagos</title><g fill="none" fill-rule="evenodd"><g stroke="#00E676" stroke-width=".821"><path d="M2.56 5V2.5h18.836V5"/><path d="M18.962 2.5l1.423 21.01-14.752.018L6.993 2.5"/><path d="M6.026 17.458H3.692L5.124 2.5M16.2 23.483c-.003-2.03 1.876-3.68 3.93-3.682M5.877 19.82c2.055-.003 3.94 1.64 3.942 3.67M15.348 13.61c.495-.572.866-1.456.866-2.094 0-1.02-.717-1.85-1.602-1.85-.885 0-1.323.885-1.603 1.85-.31 1-.718 1.85-1.603 1.85s-1.603-.83-1.603-1.85c0-.688.325-1.287.808-1.606M8.612 11.516h8.794"/><path d="M2.905 7.607C1.56 7.455.575 6.306.575 4.91V3.116C.576 1.617 1.664.5 3.152.5h17.645c1.487 0 2.584 1.117 2.584 2.617V4.91c0 1.413-.99 2.575-2.357 2.703"/></g><path d="M.03 0h23.794v24H.03z"/></g></svg>