<svg width="29" height="29" viewBox="0 0 29 29" xmlns="http://www.w3.org/2000/svg"><title>thin-0706_user_profile_add_new</title><g fill="none" fill-rule="evenodd"><g transform="translate(0 .5)" stroke="#00BDE9" stroke-width="1.28"><circle cx="21.571" cy="21.578" r="5.826"/><path d="M21.64 18.43v6.418M18.43 21.64h6.42M15.885 15.398c-1.19-.625-1.23-.685-1.375-1.147v-1.115c.743-.755 1.33-1.808 1.676-3.04a1.8 1.8 0 0 0 .35-2.622V4.975c0-2.58-1.445-4.345-4.752-4.345-3.22 0-4.755 1.766-4.755 4.345v2.5a1.8 1.8 0 0 0 .35 2.62c.347 1.232.934 2.285 1.678 3.04v1.116c-.334 1.064-4.312 2.77-7.896 4.147a.795.795 0 0 0-.507.742v2.79c0 .44.353.795.788.795H13.41"/></g><path d="M-2-1.5h32v32H-2z"/></g></svg>