<svg xmlns="http://www.w3.org/2000/svg" width="28.021" height="28.053" viewBox="0 0 28.021 28.053"><circle fill="none" stroke="#AA7FB8" stroke-width="1.28" stroke-miterlimit="10" cx="21.556" cy="21.588" r="5.826"/><path fill="none" stroke="#AA7FB8" stroke-width="1.28" stroke-miterlimit="10" d="M21.625 18.44v6.418M18.416 21.65h6.417M15.87 15.408c-1.188-.625-1.23-.685-1.374-1.147v-1.113c.742-.756 1.328-1.808 1.676-3.04a1.8 1.8 0 0 0 .35-2.623v-2.5C16.523 2.407 15.08.64 11.77.64c-3.22 0-4.755 1.766-4.755 4.345v2.5a1.8 1.8 0 0 0 .35 2.62c.35 1.233.936 2.285 1.68 3.04v1.117c-.334 1.062-4.314 2.77-7.897 4.145a.795.795 0 0 0-.508.743v2.79c0 .44.353.795.788.795h11.968"/></svg>