<svg xmlns="http://www.w3.org/2000/svg" width="31.915" height="25.711" viewBox="0 0 31.915 25.711"><path fill="none" stroke="#AA7FB8" stroke-width="1.28" stroke-miterlimit="10" d="M20.395 23.302c-1.497-.563-3.16-1.262-3.3-1.696v-.456c.313-.31.557-.74.7-1.244a.725.725 0 0 0 .147-1.073v-1.02c0-1.056-.604-1.78-1.985-1.78-1.347 0-1.987.725-1.987 1.78v1.02a.727.727 0 0 0 .147 1.072c.145.504.39.936.7 1.244v.455c-.14.435-1.802 1.133-3.3 1.696a.325.325 0 0 0-.21.305v1.14c0 .182.146.326.328.326h8.643a.326.326 0 0 0 .328-.324v-1.14a.322.322 0 0 0-.21-.304zM31.063 9.22c-1.497-.56-3.16-1.26-3.3-1.695V7.07c.312-.31.557-.74.7-1.245a.725.725 0 0 0 .147-1.073V3.73c0-1.055-.604-1.777-1.986-1.777-1.346 0-1.986.724-1.986 1.777v1.02a.728.728 0 0 0 .146 1.074c.145.505.39.936.7 1.244v.456c-.14.436-1.8 1.133-3.298 1.696a.325.325 0 0 0-.212.303v1.142c0 .18.146.325.33.325h8.64c.183 0 .33-.145.33-.325v-1.14a.322.322 0 0 0-.21-.304zM9.728 9.22c-1.497-.56-3.16-1.26-3.3-1.695V7.07c.312-.31.557-.74.7-1.245a.725.725 0 0 0 .147-1.073V3.73c0-1.055-.604-1.777-1.985-1.777-1.347 0-1.987.724-1.987 1.777v1.02a.728.728 0 0 0 .146 1.074c.145.506.39.936.7 1.245v.455C4.01 7.96 2.35 8.658.853 9.22a.325.325 0 0 0-.212.304v1.142c0 .18.146.325.33.325h8.64c.184 0 .33-.144.33-.324V9.524a.325.325 0 0 0-.212-.303zM21.913 2.14c-1.702-.952-3.68-1.5-5.79-1.5s-4.09.548-5.793 1.5M22.48 20.943c2.77-1.762 4.704-4.64 5.1-7.966-.396 3.327-2.33 6.204-5.1 7.966M9.763 20.943c-2.77-1.762-4.704-4.64-5.1-7.966.396 3.327 2.33 6.204 5.1 7.966"/></svg>