<svg width="19" height="37" viewBox="0 0 19 37" xmlns="http://www.w3.org/2000/svg" xmlns:xlink="http://www.w3.org/1999/xlink"><title>ico_pos</title><defs><path id="a" d="M.186.002h13.608v18.87H.186z"/></defs><g fill="none" fill-rule="evenodd"><g transform="rotate(-90 19.94 20.534)"><mask id="b" fill="#fff"><use xlink:href="#a"/></mask><g mask="url(#b)" stroke="#00E676" stroke-width="1.6"><path d="M14.942 12.068h4.767M22.88 15.588a1.04 1.04 0 0 1-1.04 1.037H5.726a1.04 1.04 0 0 1-1.04-1.037V5.108a1.04 1.04 0 0 1 1.04-1.04H21.84c.574 0 1.04.466 1.04 1.04v10.48z"/><path d="M4.686 6.443H22.88V9.56H4.685z"/></g></g><path d="M-.595 40.287V21.384h18.87v18.903z"/><g><g transform="translate(.98 1.265)" stroke="#00E676" stroke-width="1.7"><path d="M15.443 24.637H1.558A1.523 1.523 0 0 1 .045 23.11V1.77c0-.842.68-1.53 1.513-1.53h13.885c.834 0 1.513.688 1.513 1.53V23.11c0 .842-.68 1.527-1.513 1.527z"/><ellipse cx="4.242" cy="11.905" rx="1.04" ry="1.038"/><ellipse cx="8.487" cy="11.905" rx="1.04" ry="1.038"/><ellipse cx="12.732" cy="11.905" rx="1.04" ry="1.038"/><ellipse cx="4.242" cy="16.143" rx="1.04" ry="1.038"/><ellipse cx="8.487" cy="16.143" rx="1.04" ry="1.038"/><ellipse cx="12.732" cy="16.143" rx="1.04" ry="1.038"/><ellipse cx="4.242" cy="20.38" rx="1.04" ry="1.038"/><ellipse cx="8.487" cy="20.38" rx="1.04" ry="1.038"/><ellipse cx="12.732" cy="20.38" rx="1.04" ry="1.038"/><path d="M3.17 3.442h10.61V7.68H3.17z"/></g><path d="M-2.75 1.003H22.72v25.42H-2.75z"/><path d="M-2.75 1H22.72v25.42H-2.75z"/></g></g></svg>