<svg width="33" height="31" viewBox="0 0 33 31" xmlns="http://www.w3.org/2000/svg"><title>thin-0401_graph_growth_money_stock_inflation</title><g fill="none" fill-rule="evenodd"><g transform="translate(0 .333)" stroke="#70A0F7" stroke-width="1.333"><path d="M17.272 4.092L20.644.744l3.372 3.348"/><path d="M3.023 20.58s17.62-.544 17.62-16.62V.746"/><circle cx="6.813" cy="7.963" r="5.888"/><path d="M4.69 10.198c.57.497 1.452.87 2.088.87 1.017 0 1.842-.72 1.842-1.61 0-.89-.88-1.33-1.842-1.61-.996-.313-1.842-.722-1.842-1.61 0-.89.825-1.612 1.842-1.612.685 0 1.283.327 1.6.812M6.778 3.746v.88M6.778 11.07v.88M28.735 2h2.667v28h-2.667zM22.068 14h2.667v16h-2.667zM15.4 20.668h2.668V30H15.4zM8.734 24.668H11.4V30H8.735zM2.067 26.002h2.667v4H2.067z"/></g><path d="M0-1h32v32H0z"/></g></svg>