<svg width="88" height="79" viewBox="0 0 88 79" xmlns="http://www.w3.org/2000/svg"><title>ico_hamburguesa</title><g fill="none" fill-rule="evenodd"><g stroke="#9B9B9B" stroke-width="3" stroke-linecap="round" stroke-linejoin="round"><path d="M81.952 34.048c0-17.962-17.007-32.522-37.985-32.522-20.978 0-37.984 14.56-37.984 32.522h75.97zM81.952 66.62H5.982v1.187c0 5.343 4.27 9.674 9.533 9.674H72.42c5.264 0 9.532-4.33 9.532-9.673V66.62zM86.22 59.084c0-1.837-1.576-3.326-3.518-3.326H5.232c-1.942 0-3.516 1.49-3.516 3.326v4.21c0 1.836 1.574 3.325 3.517 3.325h77.47c1.942 0 3.516-1.49 3.516-3.327v-4.21zM84.21 42.032l-6.613 6.22-6.818-6.41-6.817 6.41-6.818-6.41-6.613 6.22-6.818-6.41-6.816 6.41-6.818-6.41-.084.107-6.614 6.22-6.817-6.41-6.817 6.41-6.817-6.41M34.483 11.878h.975M45.38 17.878h.973M52.682 11.878h.974"/></g><path d="M0-3.93h88v86.895H0z"/></g></svg>