<svg width="21" height="18" viewBox="0 0 21 18" xmlns="http://www.w3.org/2000/svg"><title>ico_integraciones</title><g fill="none" fill-rule="evenodd"><g stroke="#4A4A4A"><path d="M4.636 5.158h-2.36c-.947 0-1.718 1-1.718 2.228v7.61c0 1.23.77 2.228 1.718 2.228H18.67c.947 0 1.717-.998 1.717-2.227v-7.61c0-1.23-.77-2.23-1.717-2.23h-2.194M6.676 6.252h7.593M6.676 4.05h7.593M16.54 8.22H4.437"/><path d="M4.437 8.737V1.703c0-.312.238-.564.53-.564h11.04c.295 0 .533.25.533.563v7.034"/></g><path d="M-1.5-3h24v24h-24z"/></g></svg>