<?xml version="1.0" encoding="UTF-8" standalone="no"?>
<svg width="108px" height="36px" viewBox="0 0 108 36" version="1.1" xmlns="http://www.w3.org/2000/svg" xmlns:xlink="http://www.w3.org/1999/xlink" xmlns:sketch="http://www.bohemiancoding.com/sketch/ns">
    <!-- Generator: Sketch 3.3.1 (12002) - http://www.bohemiancoding.com/sketch -->
    <title>Fill 1 Copy 2</title>
    <desc>Created with Sketch.</desc>
    <defs></defs>
    <g id="Page-1" stroke="none" stroke-width="1" fill="none" fill-rule="evenodd" sketch:type="MSPage">
        <g id="Prueba-Gratis-1" sketch:type="MSArtboardGroup" transform="translate(-208.000000, -50.000000)" fill="#FFFFFF">
            <g id="Menu---White" sketch:type="MSLayerGroup" transform="translate(-1.000000, 32.000000)">
                <path d="M246.919511,36.8755191 L243.871245,32.1315332 C243.751497,31.9447941 243.554214,31.644537 243.431661,31.4623743 L240.887124,27.6766178 C240.608096,27.2616986 240.148363,26.8321606 239.715411,26.5819887 L232.793399,22.5773318 L231.166671,19.3005633 C230.774527,18.5106405 229.94484,18 229.053174,18 C228.798249,18 228.547277,18.0410597 228.307399,18.1222893 L217.220245,21.8769014 C216.728885,22.0429199 216.179373,22.3944064 215.821916,22.7720794 L212.789591,25.9744829 C212.527014,26.2517313 212.230387,26.6637268 212.051213,26.9998317 L209.654097,31.4913576 C209.35543,32.0503036 209.236193,32.8148024 209.350456,33.4383253 L210.842261,41.5896319 L210.326927,42.0997639 C209.640834,42.7773128 209.406951,43.8409246 209.746299,44.7447468 L209.983243,45.3750071 C210.316342,46.262685 211.143096,46.8367583 212.089343,46.8367583 C212.439658,46.8367583 212.791504,46.7532405 213.106877,46.5954848 L213.814139,46.2410746 C214.028766,46.133277 214.355617,45.9609025 214.558894,45.84802 L215.546969,45.3006419 C216.359441,44.8502563 216.882299,43.9253322 216.848122,42.9993912 L216.590774,36.0264856 L217.670796,36.4431845 L220.037688,46.8944707 C220.281646,47.9707945 221.261942,48.7519461 222.368745,48.7519461 L225.61761,48.7519461 C226.656314,48.7519461 227.609192,48.0653717 227.934767,47.0822267 L229.325699,42.8898138 L231.508825,43.1132906 L233.701388,47.3770177 C234.125159,48.1997374 235.032127,48.7519461 235.958735,48.7519461 L239.420059,48.7519461 C240.567415,48.7519461 241.569264,47.9003701 241.750479,46.7711644 L243.026637,38.8447329 L244.124385,39.5880027 C244.511173,39.8494882 244.919385,39.98182 245.338947,39.98182 C246.050673,39.98182 246.703991,39.5967739 247.043977,38.9768104 C247.213842,38.6674007 247.541458,37.8431555 246.919511,36.8755191 L246.919511,36.8755191 Z M216.83945,34.0776111 C216.64408,34.0023561 216.317102,33.9024399 216.112677,33.8554056 L214.954991,33.5904878 C214.927318,33.5842589 214.90041,33.581208 214.87465,33.581208 C214.71014,33.581208 214.590903,33.7047685 214.597534,33.8852787 L214.9365,43.0696884 C214.944152,43.2784192 214.800557,43.5324047 214.617429,43.6339735 L213.628461,44.1821143 C213.445205,44.2838102 213.142074,44.4434727 212.954738,44.5375414 L212.248624,44.8914431 C212.196338,44.9176298 212.142012,44.9299604 212.089343,44.9299604 C211.953272,44.9299604 211.827531,44.8473325 211.774608,44.7062295 L211.537791,44.0762235 C211.464336,43.880586 211.525803,43.5999054 211.674754,43.4527006 L212.634519,42.502861 C212.783215,42.3556562 212.874269,42.0668399 212.836521,41.8612871 L211.232237,33.0961187 C211.194617,32.890693 211.244225,32.5713679 211.342803,32.386917 L213.740174,27.8950097 C213.838497,27.7105588 214.0368,27.4353443 214.18065,27.2833089 L217.213103,24.0807784 C217.356953,23.9288701 217.637001,23.7493769 217.83556,23.6823847 L228.922205,19.9278998 C228.964671,19.9136623 229.008795,19.9067979 229.053174,19.9067979 C229.215898,19.9067979 229.379005,19.9989598 229.452205,20.1464188 L231.165523,23.5975958 C231.232985,23.7332327 231.272518,23.8303523 231.304272,24.0139133 L231.311541,24.0168371 L230.895805,29.5391779 L224.273353,35.704491 L219.355038,35.0692731 L219.35032,35.0308829 C219.184153,34.9746959 219.083534,34.9438058 218.956773,34.8947375 L216.83945,34.0776111 L216.83945,34.0776111 Z M245.338947,38.0750221 C245.310764,38.0750221 245.263451,38.0541745 245.199178,38.0106995 L241.929781,35.7969072 C241.873414,35.7587712 241.817685,35.7407202 241.766802,35.7407202 C241.660828,35.7407202 241.576405,35.8191531 241.55396,35.9583494 L239.861684,46.4700175 C239.828527,46.6764602 239.629713,46.8451482 239.420059,46.8451482 L235.958735,46.8451482 C235.749209,46.8451482 235.499384,46.6928586 235.403739,46.5071365 L232.911234,41.6601835 C232.815589,41.4742071 232.566785,41.3046292 232.358279,41.2832731 L228.37129,40.8752183 C228.357645,40.87382 228.343872,40.8730573 228.330099,40.8730573 C228.134091,40.8730573 227.933874,41.0117451 227.872406,41.1972129 L226.118407,46.484382 C226.052731,46.6829433 225.827264,46.8451482 225.61761,46.8451482 L222.368745,46.8451482 C222.159091,46.8451482 221.94982,46.678367 221.903528,46.4745938 L219.768224,37.0453513 L223.988969,37.5904412 C224.101958,37.6163737 224.219155,37.6289585 224.337117,37.6289585 C224.749155,37.6289585 225.172798,37.4762876 225.466109,37.203107 L232.241592,30.8954197 C232.582598,30.5778743 232.806024,30.0616406 232.810105,29.5916784 L233.15634,24.9919735 L238.756029,28.2316231 C238.937371,28.3363698 239.181202,28.5642957 239.297889,28.7379415 L241.842808,32.5243335 C241.959622,32.6979793 242.147596,32.983999 242.260457,33.1599328 L245.308978,37.9043002 C245.380138,38.0150215 245.386897,38.0750221 245.338947,38.0750221 Z M269.461989,32.8381925 C270.382093,33.0180671 270.77564,33.4764613 270.64314,34.2141378 L267.313423,46.3271348 C267.199669,47.2539657 266.620571,47.7216396 265.577404,47.7313007 C264.533855,47.7405805 263.888698,47.3390089 263.642317,46.525696 L261.137951,36.767213 L258.861221,46.3838302 C258.652205,47.2729065 258.002585,47.7216396 256.91185,47.7313007 C255.820606,47.7405805 255.180295,47.2821863 254.990919,46.3553554 L252.08816,34.2708333 C251.822267,33.5331567 252.135345,33.0465419 253.027265,32.8098447 C253.918676,32.5735289 254.507083,32.7863276 254.791722,33.4481136 L257.011449,43.2065965 L259.259613,34.0439243 C259.430499,33.3821383 260.008832,33.0417114 260.995632,33.0226434 C261.981922,33.0039568 262.627078,33.3253158 262.930719,33.9872289 L265.435212,43.0080353 L267.797131,33.5331567 C267.986635,32.8905659 268.54163,32.6586992 269.461989,32.8381925 Z M283.562723,32.5261132 C284.662766,32.5360286 285.175168,32.8622181 285.099545,33.5049361 L285.099545,46.639214 C285.080416,47.3390089 284.591734,47.6931648 283.633883,47.702953 C282.675648,47.7122328 282.196659,47.3482886 282.196659,46.6107392 L282.196659,45.1923358 C280.754717,47.0078616 279.099167,47.8257508 277.230777,47.6462575 C275.361876,47.4667643 273.89124,46.6249766 272.819762,45.1214029 C271.747519,43.6179564 271.306533,41.8546768 271.49642,39.8308016 C271.685669,37.8074348 272.316798,36.2139874 273.388913,35.0509678 C274.460391,33.8878211 275.52766,33.1741703 276.590466,32.9091254 C277.652889,32.6445889 278.67731,32.6020038 279.663855,32.781497 C280.650145,32.9613716 281.447058,33.4862495 282.054467,34.3558765 L282.054467,33.5331567 C281.959332,32.8524299 282.462169,32.5168335 283.562723,32.5261132 Z M280.062375,35.7742798 C279.26559,35.4152933 278.326357,35.3868185 277.244932,35.6891095 C276.163635,35.991909 275.333437,36.8522562 274.754849,38.2706596 C274.176007,39.689063 274.15726,41.0932289 274.697973,42.4831574 C275.238685,43.8733402 276.424171,44.5496178 278.255325,44.511609 C280.085968,44.4739815 281.371562,43.4810483 282.111471,41.5329365 L282.111471,37.5614579 C281.542193,36.7294584 280.859161,36.1337748 280.062375,35.7742798 Z M290.848057,41.9017112 C290.942809,43.3769371 291.549708,44.2660134 292.669263,44.5683044 C293.636934,45.1547083 293.874006,45.8781474 293.380861,46.7383675 C292.887206,47.5988418 292.061982,47.8116405 290.904934,47.3767634 C288.760831,46.450441 287.707717,44.9185196 287.746102,42.7811264 L287.774541,27.6894569 C287.66066,26.668176 288.187217,26.1673237 289.353829,26.1858832 C290.520824,26.2050783 291.028125,26.7063119 290.876496,27.6894569 L290.848057,41.9017112 Z M298.503346,41.9017112 C298.598098,43.3769371 299.204997,44.2660134 300.32468,44.5683044 C301.292223,45.1547083 301.529167,45.8781474 301.036022,46.7383675 C300.542622,47.5988418 299.717143,47.8116405 298.560223,47.3767634 C296.415992,46.450441 295.363006,44.9185196 295.401264,42.7811264 L295.42983,27.6894569 C295.315948,26.668176 295.842378,26.1673237 297.009245,26.1858832 C298.175985,26.2050783 298.683413,26.7063119 298.531784,27.6894569 L298.503346,41.9017112 Z M316.716554,35.0367304 L308.548992,52.9652066 C308.13147,53.9672925 307.424845,54.2417442 306.428736,53.7877992 C305.432754,53.3339813 305.238021,52.5866437 305.84543,51.5466761 L308.321357,46.0150555 L302.715036,35.1785962 C302.088881,34.0439243 302.268949,33.25451 303.255749,32.8098447 C304.242039,32.3658151 304.963201,32.6920046 305.418471,33.7885405 L309.971805,42.8661695 L313.842234,33.8170154 C314.259374,32.7203524 314.966381,32.3658151 315.962363,32.7531493 C316.958345,33.140992 317.209699,33.9020586 316.716554,35.0367304 Z" id="Fill-1-Copy-2" sketch:type="MSShapeGroup"></path>
            </g>
        </g>
    </g>
</svg>