<svg xmlns="http://www.w3.org/2000/svg" width="40" height="40" viewBox="0 0 40 40"><defs><style>.cls-1{fill:#fff;}.cls-2{fill:#ccd1d8;}.cls-3{fill:#e5e8ec;}.cls-4{fill:#434a54;}.cls-5{fill:#154766;}.cls-6{fill:#ef5452;}.cls-7{fill:#ffd25c;}</style></defs><title>Asset 9</title><g id="Layer_2" data-name="Layer 2"><g id="Layer_1-2" data-name="Layer 1"><circle class="cls-1" cx="20" cy="20" r="20"/><polygon class="cls-2" points="24.46 32.68 15.36 32.68 16.49 27.05 23.33 27.05 24.46 32.68"/><path class="cls-3" d="M33.58,27.61a.57.57,0,0,1-.57.56H6.82a.57.57,0,0,1-.57-.56v-18A.57.57,0,0,1,6.82,9H33a.57.57,0,0,1,.57.56Z"/><path class="cls-3" d="M24.47,32.68H15.36a.56.56,0,1,1,0-1.13h9.11a.56.56,0,1,1,0,1.13Z"/><path class="cls-3" d="M33,9H6.82a.57.57,0,0,0-.57.56V24.8H33.58V9.58A.57.57,0,0,0,33,9Z"/><path class="cls-4" d="M20.48,26.49a.57.57,0,1,1-.57-.56A.57.57,0,0,1,20.48,26.49Z"/><path class="cls-5" d="M32.65,9.53H7.35a.54.54,0,0,0-.55.53V24.5H33.2V10.06A.54.54,0,0,0,32.65,9.53Z"/><path class="cls-6" d="M26.17,11.27H9.09a.56.56,0,1,0,0,1.13H26.17a.56.56,0,1,0,0-1.13Z"/><path class="cls-7" d="M9.09,14.65H18.2a.56.56,0,1,0,0-1.13H9.09a.56.56,0,1,0,0,1.13Z"/><path class="cls-3" d="M9.09,16.91H21.62a.56.56,0,1,0,0-1.13H9.09a.56.56,0,1,0,0,1.13Z"/><path class="cls-6" d="M9.09,19.16h8a.56.56,0,1,0,0-1.13h-8a.56.56,0,1,0,0,1.13Z"/><path class="cls-7" d="M23.9,20.29H9.09a.56.56,0,1,0,0,1.13H23.9a.56.56,0,1,0,0-1.13Z"/><path class="cls-3" d="M13.65,22.54H9.09a.56.56,0,1,0,0,1.13h4.55a.56.56,0,1,0,0-1.13Z"/></g></g></svg>