<svg xmlns="http://www.w3.org/2000/svg" width="353.22" height="393.53" viewBox="0 0 353.22 393.53"><defs><style>.cls-1{fill:#ef5351;}.cls-2{fill:#fff;}</style></defs><title>Asset 6</title><g id="Layer_2" data-name="Layer 2"><g id="Layer_1-2" data-name="Layer 1"><path class="cls-1" d="M208.43,392.35h-2.16a3,3,0,0,1-3-3L203.23,3a3,3,0,0,1,3-3h2.16a3,3,0,0,1,3,3l0,386.35A3,3,0,0,1,208.43,392.35Z"/><circle class="cls-2" cx="207.33" cy="248.17" r="2.13"/><circle class="cls-2" cx="207.33" cy="282.83" r="2.13"/><circle class="cls-2" cx="207.33" cy="317.49" r="2.13"/><circle class="cls-2" cx="207.33" cy="352.15" r="2.13"/><circle class="cls-2" cx="207.33" cy="386.81" r="2.13"/><circle class="cls-2" cx="207.33" cy="109.53" r="2.13"/><circle class="cls-2" cx="207.33" cy="144.19" r="2.13"/><circle class="cls-2" cx="207.33" cy="178.85" r="2.13"/><circle class="cls-2" cx="207.33" cy="213.51" r="2.13"/><circle class="cls-2" cx="207.33" cy="5.55" r="2.13"/><circle class="cls-2" cx="207.33" cy="40.21" r="2.13"/><circle class="cls-2" cx="207.33" cy="74.87" r="2.13"/><path class="cls-2" d="M353.22,357.62A46,46,0,0,1,351,372.2a32.79,32.79,0,0,1-6.32,11.35,27.69,27.69,0,0,1-10.4,7.36,36.34,36.34,0,0,1-14.11,2.62q-10.57,0-18.1-4.51a28.16,28.16,0,0,1-11.28-12.55,44.33,44.33,0,0,1-3.75-18.9q0-16.75,8.73-26.42t24.44-9.67q15.48,0,24.23,9.74T353.22,357.62Zm-57.47,0q0,13.45,6.18,21.12t18.26,7.67q12.08,0,18.19-7.64t6.11-21.14q0-13.78-6.16-21.38t-18.1-7.6q-11.94,0-18.21,7.6T295.75,357.62Z"/><path class="cls-2" d="M186.24,242.78h6.37a1.65,1.65,0,0,1,1.55,2.22l-24.53,67.57h-8.49L135.9,242.78h6.91a2.57,2.57,0,0,1,2.42,1.72L160.15,287q3,8.64,5.24,16.28.71-3.54,5.28-16.42Q178,265.8,186.24,242.78Z"/><path class="cls-2" d="M273.3,312.56l-7.62-20.67a2.23,2.23,0,0,0-2.09-1.46H237.29l-8.45,22.13h-8.3l26.8-69.93h6.6a2.52,2.52,0,0,1,2.36,1.64l24.52,66a1.73,1.73,0,0,1-1.62,2.33Zm-10.81-29q-10-28.92-11-32.51L240,283.59Z"/><path class="cls-2" d="M33.55,328.7A23.73,23.73,0,0,0,20,332.52a23.13,23.13,0,0,0-8.47,10.29,37.28,37.28,0,0,0-2.78,14.86,40.69,40.69,0,0,0,1.51,11.44,26.94,26.94,0,0,0,4.53,9.06,20,20,0,0,0,7.86,6,27.13,27.13,0,0,0,11.11,2.15,38.1,38.1,0,0,0,16.7-4.2l.94,4.77a3,3,0,0,1-1.63,3.31q-6.65,3.29-17,3.29a36.29,36.29,0,0,1-14.13-2.62A27.05,27.05,0,0,1,8.33,383.5a32.79,32.79,0,0,1-6.2-11.42A48.19,48.19,0,0,1,0,357.34,43.43,43.43,0,0,1,2.31,342.9a33.43,33.43,0,0,1,6.53-11.35,28.69,28.69,0,0,1,10.55-7.38,36.14,36.14,0,0,1,14.06-2.64q10.52,0,18.09,4.16a2.14,2.14,0,0,1,.87,2.8l-2.35,4.88A31.43,31.43,0,0,0,33.55,328.7Z"/><path class="cls-2" d="M127.84,357.62a46,46,0,0,1-2.19,14.58,32.79,32.79,0,0,1-6.32,11.35,27.69,27.69,0,0,1-10.4,7.36,36.34,36.34,0,0,1-14.11,2.62q-10.57,0-18.1-4.51a28.16,28.16,0,0,1-11.28-12.55,44.33,44.33,0,0,1-3.75-18.9q0-16.75,8.73-26.42t24.44-9.67q15.48,0,24.23,9.74T127.84,357.62Zm-57.47,0q0,13.45,6.18,21.12t18.26,7.67q12.08,0,18.19-7.64t6.11-21.14q0-13.78-6.16-21.38t-18.1-7.6q-11.94,0-18.21,7.6T70.37,357.62Z"/><path class="cls-2" d="M194.27,357.53q0,17-9.67,26t-27,9H136.89V322.7h19.35a54.69,54.69,0,0,1,15.62,2.05,33.75,33.75,0,0,1,12,6.23,26.61,26.61,0,0,1,7.76,10.9A41.94,41.94,0,0,1,194.27,357.53Zm-8.73.24q0-14.63-7.55-21.28t-22-6.65H145.05v55.54h12.32q13.78,0,21-7T185.54,357.76Z"/><path class="cls-2" d="M253.86,393.53a36.68,36.68,0,0,1-14.32-2.67,27.77,27.77,0,0,1-10.48-7.45,33.39,33.39,0,0,1-6.32-11.35,45.13,45.13,0,0,1-2.19-14.39,41.66,41.66,0,0,1,4-18.69,30,30,0,0,1,11.94-12.79,36.32,36.32,0,0,1,18.78-4.67,41.13,41.13,0,0,1,18.8,4.18,2.75,2.75,0,0,1,1.27,3.6l-2,4.44a35.57,35.57,0,0,0-17.93-5,28.2,28.2,0,0,0-11.4,2.19,21.52,21.52,0,0,0-8.21,6.09,27.42,27.42,0,0,0-4.86,9.15,37.87,37.87,0,0,0-1.68,11.54q0,13.31,6.63,21t19.56,7.71a40.86,40.86,0,0,0,15-3V363.52H253.9l.28-7.13h21.16a2.66,2.66,0,0,1,2.66,2.66v29.23a53,53,0,0,1-11.49,4A60.13,60.13,0,0,1,253.86,393.53Z"/></g></g></svg>