<?xml version="1.0" encoding="utf-8"?>
<!-- Generator: Adobe Illustrator 21.0.0, SVG Export Plug-In . SVG Version: 6.00 Build 0)  -->
<svg version="1.1" id="Layer_1" xmlns="http://www.w3.org/2000/svg" xmlns:xlink="http://www.w3.org/1999/xlink" x="0px" y="0px"
	 viewBox="0 0 426 435" style="enable-background:new 0 0 426 435;" xml:space="preserve">
<style type="text/css">
	.st0{fill:#EF5351;}
	.st1{fill:#FFFFFF;}
	.st2{fill:#174665;}
</style>
<g>
	<path class="st0" d="M245.1,407.8h-2.2c-1.7,0-3-1.3-3-3l0-386.3c0-1.7,1.3-3,3-3h2.2c1.7,0,3,1.3,3,3l0,386.3
		C248.1,406.4,246.8,407.8,245.1,407.8z"/>
	<g>
		<circle class="st1" cx="244" cy="263.6" r="2.1"/>
		<circle class="st1" cx="244" cy="298.2" r="2.1"/>
		<circle class="st1" cx="244" cy="332.9" r="2.1"/>
		<circle class="st1" cx="244" cy="367.6" r="2.1"/>
		<circle class="st1" cx="244.1" cy="402.2" r="2.1"/>
	</g>
	<g>
		<circle class="st1" cx="243.9" cy="124.9" r="2.1"/>
		<circle class="st1" cx="243.9" cy="159.6" r="2.1"/>
		<circle class="st1" cx="243.9" cy="194.3" r="2.1"/>
		<circle class="st1" cx="243.9" cy="228.9" r="2.1"/>
	</g>
	<g>
		<circle class="st1" cx="244" cy="21" r="2.1"/>
		<circle class="st1" cx="244" cy="55.6" r="2.1"/>
		<circle class="st1" cx="244" cy="90.3" r="2.1"/>
	</g>
	<g>
		<g>
			<g>
				<g>
					<path class="st2" d="M389.8,373c0,5.3-0.7,10.2-2.2,14.6c-1.5,4.4-3.6,8.2-6.3,11.3c-2.8,3.2-6.2,5.6-10.4,7.4
						c-4.2,1.7-8.9,2.6-14.1,2.6c-7,0-13.1-1.5-18.1-4.5c-5-3-8.8-7.2-11.3-12.6c-2.5-5.4-3.8-11.7-3.8-18.9c0-11.2,2.9-20,8.7-26.4
						c5.8-6.4,14-9.7,24.4-9.7c10.3,0,18.4,3.2,24.2,9.7C386.9,353.1,389.8,361.9,389.8,373z M332.4,373c0,9,2.1,16,6.2,21.1
						c4.1,5.1,10.2,7.7,18.3,7.7c8.1,0,14.1-2.5,18.2-7.6c4.1-5.1,6.1-12.1,6.1-21.1c0-9.2-2.1-16.3-6.2-21.4
						c-4.1-5.1-10.1-7.6-18.1-7.6c-8,0-14,2.5-18.2,7.6C334.5,356.7,332.4,363.9,332.4,373z"/>
				</g>
			</g>
			<g>
				<g>
					<path class="st2" d="M222.9,258.2h6.4c1.1,0,1.9,1.1,1.6,2.2L206.3,328h-8.5l-25.2-69.8h6.9c1.1,0,2.1,0.7,2.4,1.7l14.9,42.5
						c2,5.8,3.8,11.2,5.2,16.3c0.5-2.4,2.2-7.8,5.3-16.4C212.2,288.2,217.4,273.5,222.9,258.2z"/>
				</g>
			</g>
			<g>
				<g>
					<path class="st2" d="M309.9,328l-7.6-20.7c-0.3-0.9-1.2-1.5-2.1-1.5h-26.3l-8.4,22.1h-8.3l26.8-69.9h6.6c1.1,0,2,0.7,2.4,1.6
						l24.5,66c0.4,1.1-0.4,2.3-1.6,2.3H309.9z M299.1,299c-6.6-19.3-10.3-30.1-11-32.5L276.7,299H299.1z"/>
				</g>
			</g>
			<g>
				<g>
					<path class="st2" d="M70.2,344.1c-5.3,0-9.8,1.3-13.6,3.8c-3.8,2.5-6.6,6-8.5,10.3c-1.9,4.3-2.8,9.3-2.8,14.9
						c0,4.2,0.5,8,1.5,11.4c1,3.4,2.5,6.5,4.5,9.1c2,2.6,4.6,4.6,7.9,6c3.2,1.4,6.9,2.1,11.1,2.1c5.4,0,10.9-1.4,16.7-4.2l0.9,4.8
						c0.3,1.3-0.4,2.7-1.6,3.3c-4.4,2.2-10.1,3.3-17,3.3c-5.3,0-10-0.9-14.1-2.6c-4.2-1.7-7.6-4.2-10.3-7.4c-2.7-3.2-4.8-7-6.2-11.4
						c-1.4-4.4-2.1-9.3-2.1-14.7c0-5.2,0.8-10,2.3-14.4c1.5-4.4,3.7-8.2,6.5-11.3c2.8-3.2,6.3-5.6,10.5-7.4
						c4.2-1.8,8.9-2.6,14.1-2.6c7,0,13,1.4,18.1,4.2c1,0.5,1.4,1.8,0.9,2.8l-2.4,4.9C81.5,345.7,76,344.1,70.2,344.1z"/>
				</g>
			</g>
			<g>
				<g>
					<path class="st2" d="M164.5,373c0,5.3-0.7,10.2-2.2,14.6c-1.5,4.4-3.6,8.2-6.3,11.3c-2.8,3.2-6.2,5.6-10.4,7.4
						c-4.2,1.7-8.9,2.6-14.1,2.6c-7,0-13.1-1.5-18.1-4.5c-5-3-8.8-7.2-11.3-12.6c-2.5-5.4-3.8-11.7-3.8-18.9c0-11.2,2.9-20,8.7-26.4
						c5.8-6.4,14-9.7,24.4-9.7c10.3,0,18.4,3.2,24.2,9.7C161.5,353.1,164.5,361.9,164.5,373z M107,373c0,9,2.1,16,6.2,21.1
						c4.1,5.1,10.2,7.7,18.3,7.7c8.1,0,14.1-2.5,18.2-7.6c4.1-5.1,6.1-12.1,6.1-21.1c0-9.2-2.1-16.3-6.2-21.4
						c-4.1-5.1-10.1-7.6-18.1-7.6c-8,0-14,2.5-18.2,7.6C109.1,356.7,107,363.9,107,373z"/>
				</g>
			</g>
			<g>
				<g>
					<path class="st2" d="M230.9,372.9c0,11.4-3.2,20-9.7,26c-6.4,6-15.4,9-27,9h-20.7v-69.8h19.3c5.8,0,11,0.7,15.6,2.1
						c4.6,1.4,8.6,3.4,12,6.2c3.4,2.8,6,6.4,7.8,10.9C230,361.8,230.9,367,230.9,372.9z M222.2,373.2c0-9.8-2.5-16.8-7.5-21.3
						c-5-4.4-12.4-6.7-22-6.7h-10.9v55.5H194c9.2,0,16.2-2.3,21-7C219.8,389.2,222.2,382.3,222.2,373.2z"/>
				</g>
			</g>
			<g>
				<g>
					<path class="st2" d="M290.5,408.9c-5.3,0-10.1-0.9-14.3-2.7c-4.2-1.8-7.7-4.3-10.5-7.5c-2.8-3.2-4.9-7-6.3-11.3
						c-1.5-4.4-2.2-9.2-2.2-14.4c0-7,1.3-13.3,4-18.7c2.7-5.4,6.7-9.7,11.9-12.8c5.3-3.1,11.5-4.7,18.8-4.7c7,0,13.3,1.4,18.8,4.2
						c1.3,0.7,1.9,2.3,1.3,3.6l-2,4.4c-5.9-3.4-11.8-5-17.9-5c-4.2,0-8,0.7-11.4,2.2c-3.4,1.5-6.1,3.5-8.2,6.1
						c-2.1,2.6-3.7,5.6-4.9,9.2c-1.1,3.5-1.7,7.4-1.7,11.5c0,8.9,2.2,15.9,6.6,21c4.4,5.1,10.9,7.7,19.6,7.7c4.9,0,9.9-1,15-3v-19.9
						h-16.5l0.3-7.1H312c1.5,0,2.7,1.2,2.7,2.7v29.2c-4,1.9-7.8,3.2-11.5,4C299.5,408.5,295.2,408.9,290.5,408.9z"/>
				</g>
			</g>
		</g>
	</g>
</g>
</svg>
