<svg xmlns="http://www.w3.org/2000/svg" width="40" height="40" viewBox="0 0 40 40"><defs><style>.cls-1{fill:#fff;}.cls-2{fill:#174665;}.cls-3{fill:#efeff0;}.cls-4{fill:#ffd25b;}.cls-5{fill:#ef5351;}</style></defs><title>Asset 11</title><g id="Layer_2" data-name="Layer 2"><g id="Layer_1-2" data-name="Layer 1"><circle class="cls-1" cx="20" cy="20" r="20"/><path class="cls-2" d="M10.08,9.17H29.94a.89.89,0,0,1,.89.89V29.94c0,.49-.4.73-.89.73l-20,0a.7.7,0,0,1-.77-.77V10.06A.89.89,0,0,1,10.08,9.17Z"/><rect class="cls-3" x="9.17" y="12.36" width="21.67" height="18.46"/><path class="cls-1" d="M16.67,10.19H28.8a.18.18,0,0,1,.18.18v.51a.18.18,0,0,1-.18.18H16.67a.18.18,0,0,1-.18-.18v-.51A.18.18,0,0,1,16.67,10.19Z"/><path class="cls-1" d="M11.25,10a.64.64,0,1,1-.64.64A.64.64,0,0,1,11.25,10Zm3.32,0a.64.64,0,1,1-.64.64A.64.64,0,0,1,14.57,10ZM12.9,10a.64.64,0,1,1-.64.64A.64.64,0,0,1,12.9,10Z"/><rect class="cls-4" x="11.09" y="13.83" width="17.85" height="5.27"/><rect class="cls-4" x="23.19" y="20.72" width="5.73" height="4.55"/><path class="cls-5" d="M11.09,20.72h10.7v.83H11.09v-.83Zm0,6.51h10.7v.83H11.09v-.83Zm0-1.64h10.7v.83H11.09v-.83Zm0-1.64h10.7v.83H11.09V24Zm0-1.64h10.7v.83H11.09v-.83Z"/></g></g></svg>